NotoSerif-CondensedSemiBold.ufo
<glyph name="uni0191" format="2">
  <advance width="615"/>
  <unicode hex="0191"/>
  <anchor x="147" y="-10" name="bottom"/>
  <anchor x="361" y="714" name="top"/>
  <anchor x="643" y="714" name="topright"/>
  <outline>
    <contour>
      <point x="147" y="-10" type="curve" smooth="yes"/>
      <point x="263" y="-10"/>
      <point x="337" y="61"/>
      <point x="337" y="186" type="curve" smooth="yes"/>
      <point x="337" y="342" type="line"/>
      <point x="531" y="342" type="line"/>
      <point x="531" y="399" type="line"/>
      <point x="337" y="399" type="line"/>
      <point x="337" y="657" type="line"/>
      <point x="467" y="657" type="line" smooth="yes"/>
      <point x="499" y="657"/>
      <point x="521" y="629"/>
      <point x="526" y="580" type="curve" smooth="yes"/>
      <point x="530" y="533" type="line"/>
      <point x="588" y="533" type="line"/>
      <point x="584" y="714" type="line"/>
      <point x="128" y="714" type="line"/>
      <point x="128" y="665" type="line"/>
      <point x="159" y="665" type="line" smooth="yes"/>
      <point x="184" y="665"/>
      <point x="204" y="652"/>
      <point x="204" y="605" type="curve" smooth="yes"/>
      <point x="204" y="155" type="line" smooth="yes"/>
      <point x="204" y="86"/>
      <point x="190" y="45"/>
      <point x="135" y="45" type="curve" smooth="yes"/>
      <point x="96" y="45"/>
      <point x="69" y="90"/>
      <point x="69" y="170" type="curve"/>
      <point x="29" y="170"/>
      <point x="-11" y="151"/>
      <point x="-11" y="100" type="curve" smooth="yes"/>
      <point x="-11" y="32"/>
      <point x="42" y="-10"/>
    </contour>
  </outline>
</glyph>
<glyph name="florin" format="2">
  <advance width="407"/>
  <unicode hex="0192"/>
  <anchor x="121" y="-12" name="bottom"/>
  <anchor x="290" y="771" name="top"/>
  <anchor x="471" y="770" name="topright"/>
  <outline>
    <contour>
      <point x="121" y="-12" type="curve" smooth="yes"/>
      <point x="232" y="-12"/>
      <point x="292" y="55"/>
      <point x="292" y="181" type="curve" smooth="yes"/>
      <point x="292" y="473" type="line"/>
      <point x="404" y="473" type="line"/>
      <point x="404" y="536" type="line"/>
      <point x="292" y="536" type="line"/>
      <point x="292" y="593" type="line" smooth="yes"/>
      <point x="292" y="679"/>
      <point x="306" y="716"/>
      <point x="336" y="716" type="curve" smooth="yes"/>
      <point x="366" y="716"/>
      <point x="373" y="667"/>
      <point x="373" y="632" type="curve"/>
      <point x="444" y="632"/>
      <point x="463" y="662"/>
      <point x="463" y="698" type="curve" smooth="yes"/>
      <point x="463" y="734"/>
      <point x="438" y="770"/>
      <point x="334" y="770" type="curve" smooth="yes"/>
      <point x="213" y="770"/>
      <point x="163" y="700"/>
      <point x="163" y="577" type="curve" smooth="yes"/>
      <point x="163" y="536" type="line"/>
      <point x="90" y="536" type="line"/>
      <point x="90" y="473" type="line"/>
      <point x="163" y="473" type="line"/>
      <point x="163" y="165" type="line" smooth="yes"/>
      <point x="163" y="79"/>
      <point x="149" y="42"/>
      <point x="116" y="42" type="curve" smooth="yes"/>
      <point x="76" y="42"/>
      <point x="69" y="96"/>
      <point x="69" y="131" type="curve"/>
      <point x="8" y="131"/>
      <point x="-8" y="101"/>
      <point x="-8" y="65" type="curve" smooth="yes"/>
      <point x="-8" y="29"/>
      <point x="21" y="-12"/>
    </contour>
  </outline>
</glyph>
<glyph name="doublemacronbelowcomb" format="2">
  <unicode hex="035F"/>
  <anchor x="0" y="0" name="_bottom"/>
  <anchor x="0" y="-143" name="bottom"/>
  <outline>
    <contour>
      <point x="-241" y="-143" type="line"/>
      <point x="240" y="-143" type="line"/>
      <point x="240" y="-84" type="line"/>
      <point x="-241" y="-84" type="line"/>
    </contour>
  </outline>
</glyph>
<glyph name="tonos" format="2">
  <advance width="470"/>
  <unicode hex="0384"/>
  <anchor x="253" y="536" name="_top"/>
  <outline>
    <contour>
      <point x="177" y="606" type="line"/>
      <point x="239" y="606" type="line"/>
      <point x="272" y="659"/>
      <point x="307" y="724"/>
      <point x="329" y="784" type="curve"/>
      <point x="329" y="796" type="line"/>
      <point x="213.01" y="796" type="line"/>
      <point x="203" y="738"/>
      <point x="188" y="675"/>
      <point x="177" y="621" type="curve"/>
    </contour>
  </outline>
</glyph>
<glyph name="uni0488" format="2">
  <advance width="806"/>
  <unicode hex="0488"/>
  <outline>
    <contour>
      <point x="546" y="462" type="curve"/>
      <point x="575.99" y="462" type="line"/>
      <point x="580" y="501"/>
      <point x="596" y="505"/>
      <point x="629" y="505" type="curve" smooth="yes"/>
      <point x="656" y="505"/>
      <point x="679" y="499"/>
      <point x="682" y="462" type="curve"/>
      <point x="714" y="462" type="line"/>
      <point x="710" y="518"/>
      <point x="681" y="557"/>
      <point x="629" y="557" type="curve" smooth="yes"/>
      <point x="574" y="557"/>
      <point x="549" y="520"/>
    </contour>
    <contour>
      <point x="87" y="-20" type="curve"/>
      <point x="117" y="-20" type="line"/>
      <point x="121" y="19"/>
      <point x="138" y="23"/>
      <point x="170" y="23" type="curve" smooth="yes"/>
      <point x="197" y="23"/>
      <point x="220" y="17"/>
      <point x="224" y="-20" type="curve"/>
      <point x="255" y="-20" type="line"/>
      <point x="251" y="36"/>
      <point x="223" y="75"/>
      <point x="170" y="75" type="curve" smooth="yes"/>
      <point x="115" y="75"/>
      <point x="90" y="38"/>
    </contour>
    <contour>
      <point x="316" y="-156" type="curve"/>
      <point x="346" y="-156" type="line"/>
      <point x="349" y="-117"/>
      <point x="366" y="-113"/>
      <point x="398" y="-113" type="curve" smooth="yes"/>
      <point x="425" y="-113"/>
      <point x="448" y="-119"/>
      <point x="452" y="-156" type="curve"/>
      <point x="483" y="-156" type="line"/>
      <point x="480" y="-100"/>
      <point x="451" y="-61"/>
      <point x="398" y="-61" type="curve" smooth="yes"/>
      <point x="343" y="-61"/>
      <point x="318" y="-98"/>
    </contour>
    <contour>
      <point x="16" y="224" type="curve"/>
      <point x="46" y="224" type="line"/>
      <point x="50" y="263"/>
      <point x="66" y="267"/>
      <point x="99" y="267" type="curve" smooth="yes"/>
      <point x="127" y="267"/>
      <point x="150" y="261"/>
      <point x="153" y="224" type="curve"/>
      <point x="184" y="224" type="line"/>
      <point x="181" y="280"/>
      <point x="152" y="319"/>
      <point x="99" y="319" type="curve" smooth="yes"/>
      <point x="45" y="319"/>
      <point x="19" y="282"/>
    </contour>
    <contour>
      <point x="87" y="462" type="curve"/>
      <point x="117" y="462" type="line"/>
      <point x="121" y="501"/>
      <point x="138" y="505"/>
      <point x="170" y="505" type="curve" smooth="yes"/>
      <point x="197" y="505"/>
      <point x="220" y="499"/>
      <point x="224" y="462" type="curve"/>
      <point x="255" y="462" type="line"/>
      <point x="251" y="518"/>
      <point x="223" y="557"/>
      <point x="170" y="557" type="curve" smooth="yes"/>
      <point x="115" y="557"/>
      <point x="90" y="520"/>
    </contour>
    <contour>
      <point x="546" y="-20" type="curve"/>
      <point x="575.99" y="-20" type="line"/>
      <point x="580" y="19"/>
      <point x="596" y="23"/>
      <point x="629" y="23" type="curve" smooth="yes"/>
      <point x="656" y="23"/>
      <point x="679" y="17"/>
      <point x="682" y="-20" type="curve"/>
      <point x="714" y="-20" type="line"/>
      <point x="710" y="36"/>
      <point x="681" y="75"/>
      <point x="629" y="75" type="curve" smooth="yes"/>
      <point x="574" y="75"/>
      <point x="549" y="38"/>
    </contour>
    <contour>
      <point x="622" y="224" type="curve"/>
      <point x="652" y="224" type="line"/>
      <point x="655" y="263"/>
      <point x="673" y="267"/>
      <point x="705" y="267" type="curve" smooth="yes"/>
      <point x="732" y="267"/>
      <point x="755" y="261"/>
      <point x="758" y="224" type="curve"/>
      <point x="789" y="224" type="line"/>
      <point x="787" y="280"/>
      <point x="757" y="319"/>
      <point x="705" y="319" type="curve" smooth="yes"/>
      <point x="651" y="319"/>
      <point x="624" y="282"/>
    </contour>
    <contour>
      <point x="316" y="601" type="curve"/>
      <point x="346" y="601" type="line"/>
      <point x="349" y="640"/>
      <point x="366" y="644"/>
      <point x="398" y="644" type="curve" smooth="yes"/>
      <point x="425" y="644"/>
      <point x="448" y="638"/>
      <point x="452" y="601" type="curve"/>
      <point x="483" y="601" type="line"/>
      <point x="480" y="657"/>
      <point x="451" y="696"/>
      <point x="398" y="696" type="curve" smooth="yes"/>
      <point x="343" y="696"/>
      <point x="318" y="659"/>
    </contour>
  </outline>
</glyph>
<glyph name="uni1AB9" format="2">
  <unicode hex="1AB9"/>
  <anchor x="-364" y="76" name="_bottom"/>
  <anchor x="-364" y="-240" name="bottom"/>
  <outline>
    <contour>
      <point x="-375" y="-240" type="line"/>
      <point x="-294" y="26" type="line"/>
      <point x="-352" y="46" type="line"/>
      <point x="-433" y="-219" type="line"/>
    </contour>
  </outline>
</glyph>
<glyph name="uni1ABA" format="2">
  <unicode hex="1ABA"/>
  <anchor x="-373" y="37" name="_bottom"/>
  <anchor x="-373" y="-268" name="bottom"/>
  <outline>
    <contour>
      <point x="-368" y="-213" type="line"/>
      <point x="-296" y="-7" type="line"/>
      <point x="-352" y="7" type="line"/>
      <point x="-424" y="-197" type="line"/>
    </contour>
    <contour>
      <point x="-400" y="-268" type="curve" smooth="yes"/>
      <point x="-371" y="-268"/>
      <point x="-350" y="-250"/>
      <point x="-350" y="-221" type="curve" smooth="yes"/>
      <point x="-350" y="-191"/>
      <point x="-371" y="-172"/>
      <point x="-400" y="-172" type="curve" smooth="yes"/>
      <point x="-429" y="-172"/>
      <point x="-450" y="-191"/>
      <point x="-450" y="-221" type="curve" smooth="yes"/>
      <point x="-450" y="-250"/>
      <point x="-429" y="-268"/>
    </contour>
  </outline>
</glyph>
<glyph name="uni1D09" format="2">
  <advance width="286"/>
  <unicode hex="1D09"/>
  <anchor x="143" y="-196" name="bottom"/>
  <anchor x="143" y="536" name="top"/>
  <outline>
    <contour>
      <point x="19" y="0" type="line"/>
      <point x="267" y="0" type="line"/>
      <point x="267" y="50" type="line"/>
      <point x="246" y="50" type="line" smooth="yes"/>
      <point x="222" y="50"/>
      <point x="205" y="61"/>
      <point x="205" y="100" type="curve" smooth="yes"/>
      <point x="205" y="436" type="line" smooth="yes"/>
      <point x="205" y="476"/>
      <point x="222" y="485"/>
      <point x="246" y="485" type="curve" smooth="yes"/>
      <point x="267" y="485" type="line"/>
      <point x="267" y="536" type="line"/>
      <point x="19" y="536" type="line"/>
      <point x="19" y="485" type="line"/>
      <point x="39" y="485" type="line" smooth="yes"/>
      <point x="64" y="485"/>
      <point x="80" y="476"/>
      <point x="80" y="436" type="curve" smooth="yes"/>
      <point x="80" y="100" type="line" smooth="yes"/>
      <point x="80" y="61"/>
      <point x="64" y="50"/>
      <point x="39" y="50" type="curve" smooth="yes"/>
      <point x="19" y="50" type="line"/>
    </contour>
    <contour>
      <point x="142" y="-196" type="curve" smooth="yes"/>
      <point x="181" y="-196"/>
      <point x="215" y="-176"/>
      <point x="215" y="-127" type="curve" smooth="yes"/>
      <point x="215" y="-78"/>
      <point x="181" y="-59"/>
      <point x="142" y="-59" type="curve" smooth="yes"/>
      <point x="101" y="-59"/>
      <point x="70" y="-78"/>
      <point x="70" y="-127" type="curve" smooth="yes"/>
      <point x="70" y="-176"/>
      <point x="101" y="-196"/>
    </contour>
  </outline>
</glyph>
<glyph name="uni1D24" format="2">
  <advance width="391"/>
  <unicode hex="1D24"/>
  <anchor x="196" y="0" name="bottom"/>
  <anchor x="196" y="536" name="top"/>
  <outline>
    <contour>
      <point x="204" y="-10" type="curve" smooth="yes"/>
      <point x="322" y="-10"/>
      <point x="369" y="32"/>
      <point x="369" y="100" type="curve" smooth="yes"/>
      <point x="369" y="151"/>
      <point x="335" y="167"/>
      <point x="295" y="167" type="curve"/>
      <point x="295" y="86"/>
      <point x="260" y="45"/>
      <point x="202" y="45" type="curve" smooth="yes"/>
      <point x="147" y="45"/>
      <point x="125" y="68"/>
      <point x="125" y="112" type="curve" smooth="yes"/>
      <point x="125" y="151"/>
      <point x="145" y="161"/>
      <point x="195" y="187" type="curve"/>
      <point x="195" y="224" type="line"/>
      <point x="312" y="280"/>
      <point x="361" y="301"/>
      <point x="361" y="404" type="curve" smooth="yes"/>
      <point x="361" y="504"/>
      <point x="291" y="547"/>
      <point x="186" y="547" type="curve" smooth="yes"/>
      <point x="85" y="547"/>
      <point x="42" y="502"/>
      <point x="42" y="452" type="curve" smooth="yes"/>
      <point x="42" y="412"/>
      <point x="66" y="393"/>
      <point x="118" y="393" type="curve"/>
      <point x="118" y="460"/>
      <point x="151" y="493"/>
      <point x="197" y="493" type="curve" smooth="yes"/>
      <point x="236" y="493"/>
      <point x="261" y="476"/>
      <point x="261" y="437" type="curve" smooth="yes"/>
      <point x="261" y="400"/>
      <point x="244" y="380"/>
      <point x="194" y="357" type="curve"/>
      <point x="194" y="320" type="line"/>
      <point x="73" y="264"/>
      <point x="25" y="226"/>
      <point x="25" y="146" type="curve" smooth="yes"/>
      <point x="25" y="47"/>
      <point x="88" y="-10"/>
    </contour>
  </outline>
</glyph>
<glyph name="uni1D7A" format="2">
  <advance width="893"/>
  <unicode hex="1D7A"/>
  <anchor x="205" y="0" name="bottom_1"/>
  <anchor x="603" y="0" name="bottom_2"/>
  <anchor x="169" y="268" name="center_1"/>
  <anchor x="603" y="268" name="center_2"/>
  <anchor x="157" y="659" name="top_1"/>
  <anchor x="603" y="760" name="top_2"/>
  <anchor x="330" y="659" name="topright_1"/>
  <anchor x="824" y="760" name="topright_2"/>
  <outline>
    <contour>
      <point x="29" y="-110" type="line"/>
      <point x="104" y="-110" type="line"/>
      <point x="725" y="760" type="line"/>
      <point x="650" y="760" type="line"/>
    </contour>
    <component base="t"/>
    <component base="h" xOffset="330"/>
  </outline>
</glyph>
<glyph name="uni1FC1" format="2">
  <advance width="248"/>
  <unicode hex="1FC1"/>
  <anchor x="125" y="536" name="_top"/>
  <outline>
    <contour>
      <point x="-19" y="757" type="curve"/>
      <point x="29" y="757" type="line"/>
      <point x="30" y="780"/>
      <point x="39" y="806"/>
      <point x="61" y="806" type="curve" smooth="yes"/>
      <point x="94" y="806"/>
      <point x="130" y="756"/>
      <point x="180" y="756" type="curve" smooth="yes"/>
      <point x="236" y="756"/>
      <point x="264" y="803"/>
      <point x="268" y="869" type="curve"/>
      <point x="219" y="869" type="line"/>
      <point x="217" y="844"/>
      <point x="208" y="819"/>
      <point x="186" y="819" type="curve" smooth="yes"/>
      <point x="157" y="819"/>
      <point x="121" y="870"/>
      <point x="72" y="870" type="curve" smooth="yes"/>
      <point x="15" y="870"/>
      <point x="-15" y="822"/>
    </contour>
    <contour>
      <point x="39" y="602" type="curve" smooth="yes"/>
      <point x="65" y="602"/>
      <point x="88" y="618"/>
      <point x="88" y="662" type="curve" smooth="yes"/>
      <point x="88" y="706"/>
      <point x="65" y="721"/>
      <point x="39" y="721" type="curve" smooth="yes"/>
      <point x="14" y="721"/>
      <point x="-10" y="706"/>
      <point x="-10" y="662" type="curve" smooth="yes"/>
      <point x="-10" y="618"/>
      <point x="14" y="602"/>
    </contour>
    <contour>
      <point x="209" y="602" type="curve" smooth="yes"/>
      <point x="233" y="602"/>
      <point x="258" y="618"/>
      <point x="258" y="662" type="curve" smooth="yes"/>
      <point x="258" y="706"/>
      <point x="233" y="721"/>
      <point x="209" y="721" type="curve" smooth="yes"/>
      <point x="182" y="721"/>
      <point x="158" y="706"/>
      <point x="158" y="662" type="curve" smooth="yes"/>
      <point x="158" y="618"/>
      <point x="182" y="602"/>
    </contour>
  </outline>
</glyph>
<glyph name="uni1FEF" format="2">
  <advance width="503"/>
  <unicode hex="1FEF"/>
  <anchor x="254" y="536" name="_top"/>
  <anchor x="254" y="760" name="top"/>
  <outline>
    <contour>
      <point x="263" y="596" type="curve"/>
      <point x="324" y="596" type="line"/>
      <point x="324" y="610" type="line"/>
      <point x="312" y="650"/>
      <point x="302" y="713"/>
      <point x="300" y="760" type="curve"/>
      <point x="184" y="760" type="line"/>
      <point x="184" y="749" type="line"/>
      <point x="200" y="709"/>
      <point x="232" y="638"/>
    </contour>
  </outline>
</glyph>
<glyph name="uni1FFD" format="2">
  <advance width="503"/>
  <unicode hex="1FFD"/>
  <anchor x="251" y="536" name="_top"/>
  <anchor x="251" y="760" name="top"/>
  <outline>
    <contour>
      <point x="181" y="596" type="line"/>
      <point x="242" y="596" type="line"/>
      <point x="276" y="643"/>
      <point x="303" y="705"/>
      <point x="320" y="749" type="curve"/>
      <point x="320" y="760" type="line"/>
      <point x="204" y="760" type="line"/>
      <point x="201" y="713"/>
      <point x="192" y="654"/>
      <point x="181" y="610" type="curve"/>
    </contour>
  </outline>
</glyph>
<glyph name="parenleftsuperior" format="2">
  <advance width="204"/>
  <unicode hex="207D"/>
  <outline>
    <contour>
      <point x="193" y="196" type="curve"/>
      <point x="193" y="240" type="line"/>
      <point x="117" y="303"/>
      <point x="105" y="369"/>
      <point x="105" y="491" type="curve" smooth="yes"/>
      <point x="105" y="612"/>
      <point x="117" y="682"/>
      <point x="193" y="746" type="curve"/>
      <point x="193" y="788" type="line"/>
      <point x="78" y="737"/>
      <point x="18" y="674"/>
      <point x="18" y="491" type="curve" smooth="yes"/>
      <point x="18" y="302"/>
      <point x="70" y="247"/>
    </contour>
  </outline>
</glyph>
<glyph name="parenrightsuperior" format="2">
  <advance width="204"/>
  <unicode hex="207E"/>
  <outline>
    <contour>
      <point x="9" y="196" type="line"/>
      <point x="125" y="247"/>
      <point x="186" y="310"/>
      <point x="186" y="493" type="curve" smooth="yes"/>
      <point x="186" y="682"/>
      <point x="133" y="737"/>
      <point x="9" y="788" type="curve"/>
      <point x="9" y="744" type="line"/>
      <point x="86" y="681"/>
      <point x="98" y="615"/>
      <point x="98" y="493" type="curve"/>
      <point x="98" y="372"/>
      <point x="86" y="302"/>
      <point x="9" y="238" type="curve"/>
    </contour>
  </outline>
</glyph>
<glyph name="uni20A9" format="2">
  <advance width="870"/>
  <unicode hex="20A9"/>
  <outline>
    <contour>
      <point x="204" y="0" type="line"/>
      <point x="317" y="0" type="line"/>
      <point x="387" y="292" type="line"/>
      <point x="494" y="292" type="line"/>
      <point x="556" y="0" type="line"/>
      <point x="670" y="0" type="line"/>
      <point x="732" y="292" type="line"/>
      <point x="857" y="292" type="line"/>
      <point x="857" y="351" type="line"/>
      <point x="745" y="351" type="line"/>
      <point x="757" y="409" type="line"/>
      <point x="857" y="409" type="line"/>
      <point x="857" y="468" type="line"/>
      <point x="770" y="468" type="line"/>
      <point x="796" y="587" type="line" smooth="yes"/>
      <point x="810" y="653"/>
      <point x="826" y="665"/>
      <point x="857" y="665" type="curve" smooth="yes"/>
      <point x="873" y="665" type="line"/>
      <point x="873" y="714" type="line"/>
      <point x="658" y="714" type="line"/>
      <point x="658" y="665" type="line"/>
      <point x="677" y="665" type="line" smooth="yes"/>
      <point x="713" y="665"/>
      <point x="729" y="654"/>
      <point x="729" y="625" type="curve" smooth="yes"/>
      <point x="729" y="611"/>
      <point x="725" y="581"/>
      <point x="721" y="564" type="curve" smooth="yes"/>
      <point x="702" y="468" type="line"/>
      <point x="569" y="468" type="line"/>
      <point x="516" y="707" type="line"/>
      <point x="427.01" y="707" type="line"/>
      <point x="369" y="468" type="line"/>
      <point x="232" y="468" type="line"/>
      <point x="212" y="568" type="line" smooth="yes"/>
      <point x="209" y="586"/>
      <point x="204" y="612"/>
      <point x="204" y="624" type="curve" smooth="yes"/>
      <point x="204" y="651"/>
      <point x="220" y="665"/>
      <point x="253" y="665" type="curve" smooth="yes"/>
      <point x="272" y="665" type="line"/>
      <point x="272" y="714" type="line"/>
      <point x="0" y="714" type="line"/>
      <point x="0" y="665" type="line"/>
      <point x="10" y="665" type="line" smooth="yes"/>
      <point x="42" y="665"/>
      <point x="58" y="654"/>
      <point x="68" y="612" type="curve" smooth="yes"/>
      <point x="100" y="468" type="line"/>
      <point x="13" y="468" type="line"/>
      <point x="13" y="409" type="line"/>
      <point x="113" y="409" type="line"/>
      <point x="126" y="351" type="line"/>
      <point x="13" y="351" type="line"/>
      <point x="13" y="292" type="line"/>
      <point x="140" y="292" type="line"/>
    </contour>
    <contour>
      <point x="293" y="151" type="line"/>
      <point x="266" y="292" type="line"/>
      <point x="326" y="292" type="line"/>
    </contour>
    <contour>
      <point x="255" y="351" type="line"/>
      <point x="244" y="409" type="line"/>
      <point x="354" y="409" type="line"/>
      <point x="341" y="351" type="line"/>
    </contour>
    <contour>
      <point x="638" y="150" type="line"/>
      <point x="608" y="292" type="line"/>
      <point x="667" y="292" type="line"/>
    </contour>
    <contour>
      <point x="401" y="351" type="line"/>
      <point x="415" y="409" type="line"/>
      <point x="469" y="409" type="line"/>
      <point x="482" y="351" type="line"/>
    </contour>
    <contour>
      <point x="425" y="468" type="line"/>
      <point x="444" y="549" type="line"/>
      <point x="460" y="468" type="line"/>
    </contour>
    <contour>
      <point x="595" y="351" type="line"/>
      <point x="582" y="409" type="line"/>
      <point x="690" y="409" type="line"/>
      <point x="679" y="351" type="line"/>
    </contour>
  </outline>
</glyph>
<glyph name="uni20AD" format="2">
  <advance width="616"/>
  <unicode hex="20AD"/>
  <anchor x="308" y="0" name="bottom"/>
  <anchor x="308" y="714" name="top"/>
  <anchor x="596" y="714" name="topright"/>
  <outline>
    <contour>
      <point x="13" y="344" type="line"/>
      <point x="546" y="344" type="line"/>
      <point x="546" y="401" type="line"/>
      <point x="13" y="401" type="line"/>
    </contour>
    <component base="K"/>
  </outline>
</glyph>
<glyph name="uni20B2" format="2">
  <advance width="632"/>
  <unicode hex="20B2"/>
  <anchor x="343" y="0" name="bottom"/>
  <anchor x="346" y="714" name="top"/>
  <anchor x="612" y="714" name="topright"/>
  <outline>
    <contour>
      <point x="309" y="-79" type="line"/>
      <point x="357" y="-79" type="line"/>
      <point x="357" y="780" type="line"/>
      <point x="309" y="780" type="line"/>
    </contour>
    <component base="G"/>
  </outline>
</glyph>
<glyph name="uniA671" format="2">
  <unicode hex="A671"/>
  <outline>
    <contour>
      <point x="-232" y="579" type="line"/>
      <point x="-188" y="579" type="line"/>
      <point x="-188" y="678" type="line"/>
      <point x="187" y="678" type="line"/>
      <point x="187" y="579" type="line"/>
      <point x="231" y="579" type="line"/>
      <point x="231" y="750" type="line"/>
      <point x="-232" y="750" type="line"/>
    </contour>
    <contour>
      <point x="-232" y="-214" type="line"/>
      <point x="231" y="-214" type="line"/>
      <point x="231" y="-43" type="line"/>
      <point x="187" y="-43" type="line"/>
      <point x="187" y="-142" type="line"/>
      <point x="-188" y="-142" type="line"/>
      <point x="-188" y="-43" type="line"/>
      <point x="-232" y="-43" type="line"/>
    </contour>
  </outline>
</glyph>
<glyph name="uniA672" format="2">
  <unicode hex="A672"/>
  <outline>
    <contour>
      <point x="-20" y="497" type="line"/>
      <point x="20" y="497" type="line"/>
      <point x="20" y="594" type="line"/>
      <point x="107" y="594" type="line"/>
      <point x="107" y="635" type="line"/>
      <point x="20" y="635" type="line"/>
      <point x="20" y="729" type="line"/>
      <point x="-20" y="729" type="line"/>
      <point x="-20" y="635" type="line"/>
      <point x="-107" y="635" type="line"/>
      <point x="-107" y="594" type="line"/>
      <point x="-20" y="594" type="line"/>
    </contour>
    <contour>
      <point x="-139" y="-197" type="line"/>
      <point x="-100" y="-197" type="line"/>
      <point x="-100" y="36" type="line"/>
      <point x="-139" y="36" type="line"/>
    </contour>
    <contour>
      <point x="-346" y="57" type="line"/>
      <point x="-148" y="57" type="line"/>
      <point x="-148" y="98" type="line"/>
      <point x="-346" y="98" type="line"/>
    </contour>
    <contour>
      <point x="-20" y="-197" type="line"/>
      <point x="20" y="-197" type="line"/>
      <point x="20" y="36" type="line"/>
      <point x="-20" y="36" type="line"/>
    </contour>
    <contour>
      <point x="-346" y="252" type="line"/>
      <point x="-148" y="252" type="line"/>
      <point x="-148" y="293" type="line"/>
      <point x="-346" y="293" type="line"/>
    </contour>
    <contour>
      <point x="100" y="-197" type="line"/>
      <point x="140" y="-197" type="line"/>
      <point x="140" y="36" type="line"/>
      <point x="100" y="36" type="line"/>
    </contour>
    <contour>
      <point x="-346" y="447" type="line"/>
      <point x="-148" y="447" type="line"/>
      <point x="-148" y="488" type="line"/>
      <point x="-346" y="488" type="line"/>
    </contour>
    <contour>
      <point x="148" y="57" type="line"/>
      <point x="346" y="57" type="line"/>
      <point x="346" y="98" type="line"/>
      <point x="148" y="98" type="line"/>
    </contour>
    <contour>
      <point x="148" y="252" type="line"/>
      <point x="346" y="252" type="line"/>
      <point x="346" y="293" type="line"/>
      <point x="148" y="293" type="line"/>
    </contour>
    <contour>
      <point x="148" y="447" type="line"/>
      <point x="346" y="447" type="line"/>
      <point x="346" y="488" type="line"/>
      <point x="148" y="488" type="line"/>
    </contour>
  </outline>
</glyph>
<glyph name="uniA741" format="2">
  <advance width="639"/>
  <unicode hex="A741"/>
  <anchor x="262" y="760" name="top"/>
  <anchor x="262" y="0" name="bottom"/>
  <anchor x="510" y="760" name="topright"/>
  <outline>
    <contour>
      <point x="17" y="583" type="line"/>
      <point x="333" y="583" type="line"/>
      <point x="333" y="639" type="line"/>
      <point x="17" y="639" type="line"/>
    </contour>
    <component base="k"/>
  </outline>
</glyph>
<glyph name="uniA764" format="2">
  <advance width="524"/>
  <unicode hex="A764"/>
  <outline>
    <contour>
      <point x="22" y="0" type="line"/>
      <point x="313" y="0" type="line"/>
      <point x="313" y="49" type="line"/>
      <point x="283" y="49" type="line" smooth="yes"/>
      <point x="253" y="49"/>
      <point x="233" y="65"/>
      <point x="233" y="114" type="curve" smooth="yes"/>
      <point x="233" y="141" type="line"/>
      <point x="257" y="141" type="line" smooth="yes"/>
      <point x="447" y="141"/>
      <point x="500" y="224"/>
      <point x="500" y="332" type="curve" smooth="yes"/>
      <point x="500" y="451"/>
      <point x="440" y="507"/>
      <point x="274" y="507" type="curve" smooth="yes"/>
      <point x="233" y="507" type="line"/>
      <point x="233" y="560" type="line"/>
      <point x="308" y="560" type="line"/>
      <point x="308" y="614" type="line"/>
      <point x="233" y="614" type="line"/>
      <point x="234" y="650"/>
      <point x="247" y="665"/>
      <point x="283" y="665" type="curve" smooth="yes"/>
      <point x="313" y="665" type="line"/>
      <point x="313" y="714" type="line"/>
      <point x="22" y="714" type="line"/>
      <point x="22" y="665" type="line"/>
      <point x="49" y="665" type="line" smooth="yes"/>
      <point x="79" y="665"/>
      <point x="97" y="652"/>
      <point x="98" y="614" type="curve"/>
      <point x="22" y="614" type="line"/>
      <point x="22" y="560" type="line"/>
      <point x="98" y="560" type="line"/>
      <point x="98" y="110" type="line" smooth="yes"/>
      <point x="98" y="63"/>
      <point x="77" y="49"/>
      <point x="49" y="49" type="curve" smooth="yes"/>
      <point x="22" y="49" type="line"/>
    </contour>
    <contour>
      <point x="233" y="195" type="line"/>
      <point x="233" y="450" type="line"/>
      <point x="261" y="450" type="line" smooth="yes"/>
      <point x="331" y="450"/>
      <point x="357" y="414"/>
      <point x="357" y="328" type="curve" smooth="yes"/>
      <point x="357" y="228"/>
      <point x="327" y="195"/>
      <point x="256" y="195" type="curve" smooth="yes"/>
    </contour>
  </outline>
</glyph>
<glyph name="uniA765" format="2">
  <advance width="531"/>
  <unicode hex="A765"/>
  <anchor x="265" y="-240" name="bottom"/>
  <anchor x="265" y="760" name="top"/>
  <outline>
    <contour>
      <point x="15" y="584" type="line"/>
      <point x="305" y="584" type="line"/>
      <point x="305" y="637" type="line"/>
      <point x="15" y="637" type="line"/>
    </contour>
    <component base="thorn"/>
  </outline>
</glyph>
<glyph name="uniA7A3" format="2">
  <advance width="524"/>
  <unicode hex="A7A3"/>
  <anchor x="262" y="760" name="top"/>
  <anchor x="262" y="0" name="bottom"/>
  <anchor x="510" y="760" name="topright"/>
  <outline>
    <contour>
      <point x="22" y="89" type="line"/>
      <point x="483" y="182" type="line"/>
      <point x="483" y="237" type="line"/>
      <point x="22" y="143" type="line"/>
    </contour>
    <component base="k"/>
  </outline>
</glyph>
<glyph name="uniA7AE" format="2">
  <advance width="461"/>
  <unicode hex="A7AE"/>
  <outline>
    <contour>
      <point x="15" y="0" type="line"/>
      <point x="445" y="0" type="line"/>
      <point x="450" y="178" type="line"/>
      <point x="392" y="178" type="line"/>
      <point x="388" y="139" type="line" smooth="yes"/>
      <point x="381" y="76"/>
      <point x="370" y="58"/>
      <point x="326" y="58" type="curve" smooth="yes"/>
      <point x="295" y="58" type="line"/>
      <point x="295" y="478" type="line"/>
      <point x="327" y="478" type="line" smooth="yes"/>
      <point x="369" y="478"/>
      <point x="381" y="460"/>
      <point x="388" y="397" type="curve" smooth="yes"/>
      <point x="392" y="358" type="line"/>
      <point x="450" y="358" type="line"/>
      <point x="445" y="536" type="line"/>
      <point x="15" y="536" type="line"/>
      <point x="11" y="358" type="line"/>
      <point x="69" y="358" type="line"/>
      <point x="73" y="397" type="line" smooth="yes"/>
      <point x="79" y="460"/>
      <point x="90" y="478"/>
      <point x="135" y="478" type="curve" smooth="yes"/>
      <point x="165" y="478" type="line"/>
      <point x="165" y="58" type="line"/>
      <point x="133" y="58" type="line" smooth="yes"/>
      <point x="91" y="58"/>
      <point x="79" y="76"/>
      <point x="73" y="139" type="curve" smooth="yes"/>
      <point x="69" y="178" type="line"/>
      <point x="11" y="178" type="line"/>
    </contour>
  </outline>
</glyph>
<glyph name="uniA7FF" format="2">
  <advance width="822"/>
  <unicode hex="A7FF"/>
  <outline>
    <contour>
      <point x="0" y="0" type="line"/>
      <point x="187" y="0" type="line"/>
      <point x="187" y="49" type="line"/>
      <point x="181" y="49" type="line" smooth="yes"/>
      <point x="147" y="49"/>
      <point x="129" y="63"/>
      <point x="129" y="93" type="curve" smooth="yes"/>
      <point x="129" y="109"/>
      <point x="132" y="131"/>
      <point x="139" y="158" type="curve" smooth="yes"/>
      <point x="170" y="287" type="line" smooth="yes"/>
      <point x="181" y="333"/>
      <point x="189" y="372"/>
      <point x="194" y="402" type="curve"/>
      <point x="197" y="402" type="line"/>
      <point x="202" y="370"/>
      <point x="207" y="334"/>
      <point x="215" y="301" type="curve" smooth="yes"/>
      <point x="284" y="0" type="line"/>
      <point x="371" y="0" type="line"/>
      <point x="464" y="400" type="line"/>
      <point x="558" y="0" type="line"/>
      <point x="644" y="0" type="line"/>
      <point x="749" y="409" type="line" smooth="yes"/>
      <point x="766" y="474"/>
      <point x="778" y="487"/>
      <point x="811" y="487" type="curve" smooth="yes"/>
      <point x="822" y="487" type="line"/>
      <point x="822" y="536" type="line"/>
      <point x="635" y="536" type="line"/>
      <point x="635" y="487" type="line"/>
      <point x="640" y="487" type="line" smooth="yes"/>
      <point x="675" y="487"/>
      <point x="692" y="472"/>
      <point x="692" y="438" type="curve" smooth="yes"/>
      <point x="692" y="427"/>
      <point x="689" y="405"/>
      <point x="686" y="388" type="curve" smooth="yes"/>
      <point x="654" y="247" type="line" smooth="yes"/>
      <point x="644" y="200"/>
      <point x="638" y="161"/>
      <point x="634" y="130" type="curve"/>
      <point x="630" y="130" type="line"/>
      <point x="627" y="157"/>
      <point x="619" y="213"/>
      <point x="610" y="248" type="curve" smooth="yes"/>
      <point x="536" y="535" type="line"/>
      <point x="453" y="535" type="line"/>
      <point x="379" y="243" type="line" smooth="yes"/>
      <point x="370" y="206"/>
      <point x="361" y="161"/>
      <point x="357" y="130" type="curve"/>
      <point x="355" y="130" type="line"/>
      <point x="352" y="155"/>
      <point x="344" y="206"/>
      <point x="337" y="241" type="curve" smooth="yes"/>
      <point x="270" y="536" type="line"/>
      <point x="185" y="536" type="line"/>
      <point x="71" y="128" type="line" smooth="yes"/>
      <point x="54" y="65"/>
      <point x="43" y="49"/>
      <point x="9" y="49" type="curve" smooth="yes"/>
      <point x="0" y="49" type="line"/>
    </contour>
  </outline>
</glyph>
<glyph name="uniAB41" format="2">
  <advance width="764"/>
  <unicode hex="AB41"/>
  <anchor x="386" y="535" name="bottom"/>
  <anchor x="386" y="-1" name="top"/>
  <outline>
    <contour>
      <point x="345" y="-58" type="line"/>
      <point x="402" y="-58" type="line"/>
      <point x="695" y="590" type="line"/>
      <point x="638" y="590" type="line"/>
    </contour>
    <component base="oe" xScale="-1" yScale="-1" xOffset="769" yOffset="535"/>
  </outline>
</glyph>
<glyph name="uniAB60" format="2">
  <advance width="789"/>
  <unicode hex="AB60"/>
  <outline>
    <contour>
      <point x="312" y="0" type="line"/>
      <point x="586" y="0" type="line" smooth="yes"/>
      <point x="706" y="0"/>
      <point x="772" y="56"/>
      <point x="772" y="158" type="curve" smooth="yes"/>
      <point x="772" y="279"/>
      <point x="688" y="303"/>
      <point x="588" y="303" type="curve" smooth="yes"/>
      <point x="507" y="303" type="line"/>
      <point x="507" y="416" type="line" smooth="yes"/>
      <point x="507" y="467"/>
      <point x="527" y="483"/>
      <point x="569" y="483" type="curve" smooth="yes"/>
      <point x="579" y="483" type="line"/>
      <point x="579" y="536" type="line"/>
      <point x="312" y="536" type="line"/>
      <point x="312" y="487" type="line"/>
      <point x="321" y="487" type="line" smooth="yes"/>
      <point x="359" y="487"/>
      <point x="378" y="471"/>
      <point x="378" y="415" type="curve" smooth="yes"/>
      <point x="378" y="114" type="line" smooth="yes"/>
      <point x="378" y="65"/>
      <point x="364" y="49"/>
      <point x="320" y="49" type="curve" smooth="yes"/>
      <point x="312" y="49" type="line"/>
    </contour>
    <contour>
      <point x="18" y="0" type="line"/>
      <point x="274" y="0" type="line"/>
      <point x="274" y="49" type="line"/>
      <point x="266" y="49" type="line" smooth="yes"/>
      <point x="231" y="49"/>
      <point x="210" y="65"/>
      <point x="210" y="115" type="curve" smooth="yes"/>
      <point x="210" y="421" type="line" smooth="yes"/>
      <point x="210" y="471"/>
      <point x="231" y="487"/>
      <point x="264" y="487" type="curve" smooth="yes"/>
      <point x="274" y="487" type="line"/>
      <point x="274" y="536" type="line"/>
      <point x="18" y="536" type="line"/>
      <point x="18" y="487" type="line"/>
      <point x="26" y="487" type="line" smooth="yes"/>
      <point x="59" y="487"/>
      <point x="80" y="472"/>
      <point x="80" y="421" type="curve" smooth="yes"/>
      <point x="80" y="115" type="line" smooth="yes"/>
      <point x="80" y="62"/>
      <point x="61" y="49"/>
      <point x="25" y="49" type="curve" smooth="yes"/>
      <point x="18" y="49" type="line"/>
    </contour>
    <contour>
      <point x="507" y="54" type="line"/>
      <point x="507" y="248" type="line"/>
      <point x="551" y="248" type="line" smooth="yes"/>
      <point x="606" y="248"/>
      <point x="639" y="224"/>
      <point x="639" y="159" type="curve" smooth="yes"/>
      <point x="639" y="83"/>
      <point x="610" y="54"/>
      <point x="553" y="54" type="curve" smooth="yes"/>
    </contour>
  </outline>
</glyph>
<glyph name="uniFE20" format="2">
  <unicode hex="FE20"/>
  <anchor x="2" y="536" name="_top"/>
  <outline>
    <contour>
      <point x="-315" y="593" type="curve"/>
      <point x="-259" y="593" type="line"/>
      <point x="-197" y="684"/>
      <point x="-126" y="714"/>
      <point x="2" y="714" type="curve"/>
      <point x="2" y="791" type="line"/>
      <point x="-8" y="791" type="line" smooth="yes"/>
      <point x="-151" y="791"/>
      <point x="-262" y="729"/>
    </contour>
  </outline>
</glyph>
<glyph name="uniFE21" format="2">
  <unicode hex="FE21"/>
  <anchor x="-2" y="536" name="_top"/>
  <outline>
    <contour>
      <point x="259" y="593" type="curve"/>
      <point x="315" y="593" type="line"/>
      <point x="262" y="729"/>
      <point x="151" y="791"/>
      <point x="8" y="791" type="curve" smooth="yes"/>
      <point x="-2" y="791" type="line"/>
      <point x="-2" y="714" type="line"/>
      <point x="125" y="714"/>
      <point x="198" y="684"/>
    </contour>
  </outline>
</glyph>
<glyph name="uniFE22" format="2">
  <unicode hex="FE22"/>
  <anchor x="2" y="536" name="_top"/>
  <outline>
    <contour>
      <point x="-313" y="594" type="curve"/>
      <point x="-263" y="594" type="line"/>
      <point x="-243" y="646"/>
      <point x="-211" y="665"/>
      <point x="-157" y="665" type="curve" smooth="yes"/>
      <point x="-95" y="665"/>
      <point x="-56" y="644"/>
      <point x="2" y="626" type="curve"/>
      <point x="2" y="704" type="line"/>
      <point x="-47" y="719"/>
      <point x="-102" y="734"/>
      <point x="-159" y="734" type="curve" smooth="yes"/>
      <point x="-258" y="734"/>
      <point x="-297" y="670"/>
    </contour>
  </outline>
</glyph>
<glyph name="uniFE23" format="2">
  <unicode hex="FE23"/>
  <anchor x="-3" y="536" name="_top"/>
  <outline>
    <contour>
      <point x="159" y="597" type="curve" smooth="yes"/>
      <point x="258" y="597"/>
      <point x="296" y="660"/>
      <point x="313" y="736" type="curve"/>
      <point x="263" y="736" type="line"/>
      <point x="242" y="684"/>
      <point x="211" y="666"/>
      <point x="157" y="666" type="curve" smooth="yes"/>
      <point x="92" y="666"/>
      <point x="38" y="693"/>
      <point x="-3" y="705" type="curve"/>
      <point x="-3" y="627" type="line"/>
      <point x="46" y="612"/>
      <point x="102" y="597"/>
    </contour>
  </outline>
</glyph>
<glyph name="uniFE27" format="2">
  <unicode hex="FE27"/>
  <anchor x="0" y="0" name="_bottom"/>
  <anchor x="-161" y="536" name="braceleft"/>
  <outline>
    <contour>
      <point x="0" y="-211" type="curve"/>
      <point x="0" y="-143" type="line"/>
      <point x="-134" y="-143"/>
      <point x="-226" y="-105"/>
      <point x="-272" y="-26" type="curve"/>
      <point x="-322" y="-26" type="line"/>
      <point x="-260" y="-158"/>
      <point x="-155" y="-211"/>
    </contour>
  </outline>
</glyph>
<glyph name="uniFE28" format="2">
  <unicode hex="FE28"/>
  <anchor x="0" y="0" name="_bottom"/>
  <anchor x="161" y="536" name="braceleft"/>
  <outline>
    <contour>
      <point x="0" y="-211" type="line"/>
      <point x="154" y="-211"/>
      <point x="260" y="-157"/>
      <point x="322" y="-26" type="curve"/>
      <point x="271" y="-26" type="line"/>
      <point x="226" y="-105"/>
      <point x="134" y="-143"/>
      <point x="0" y="-143" type="curve"/>
    </contour>
  </outline>
</glyph>
<glyph name="uniFE29" format="2">
  <unicode hex="FE29"/>
  <anchor x="0" y="0" name="_bottom"/>
  <anchor x="-163" y="536" name="braceleft"/>
  <outline>
    <contour>
      <point x="-326" y="-200" type="curve"/>
      <point x="-280" y="-200" type="line"/>
      <point x="-268" y="-176"/>
      <point x="-252" y="-158"/>
      <point x="-234" y="-147" type="curve" smooth="yes"/>
      <point x="-216" y="-137"/>
      <point x="-198" y="-131"/>
      <point x="-177" y="-131" type="curve" smooth="yes"/>
      <point x="-137" y="-131"/>
      <point x="-85" y="-144"/>
      <point x="0" y="-170" type="curve"/>
      <point x="0" y="-93" type="line"/>
      <point x="-63" y="-73"/>
      <point x="-122" y="-63"/>
      <point x="-175" y="-63" type="curve" smooth="yes"/>
      <point x="-253" y="-63"/>
      <point x="-307" y="-114"/>
    </contour>
  </outline>
</glyph>
<glyph name="uniFE2A" format="2">
  <unicode hex="FE2A"/>
  <anchor x="0" y="0" name="_bottom"/>
  <anchor x="163" y="536" name="braceleft"/>
  <outline>
    <contour>
      <point x="175" y="-200" type="curve" smooth="yes"/>
      <point x="252" y="-200"/>
      <point x="307" y="-149"/>
      <point x="325" y="-62" type="curve"/>
      <point x="279" y="-62" type="line"/>
      <point x="267" y="-87"/>
      <point x="251" y="-104"/>
      <point x="233" y="-116" type="curve"/>
      <point x="216" y="-127"/>
      <point x="198" y="-131"/>
      <point x="177" y="-131" type="curve" smooth="yes"/>
      <point x="136" y="-131"/>
      <point x="85" y="-119"/>
      <point x="0" y="-93" type="curve"/>
      <point x="0" y="-169" type="line"/>
      <point x="62" y="-190"/>
      <point x="122" y="-200"/>
    </contour>
  </outline>
</glyph>
<glyph name="uniFE2C" format="2">
  <unicode hex="FE2C"/>
  <anchor x="0" y="0" name="_bottom"/>
  <anchor x="-159" y="536" name="braceleft"/>
  <outline>
    <contour>
      <point x="-319" y="-205" type="line"/>
      <point x="0" y="-205" type="line"/>
      <point x="0" y="-138" type="line"/>
      <point x="-319" y="-138" type="line"/>
    </contour>
  </outline>
</glyph>
<glyph name="uniFE2E" format="2">
  <unicode hex="FE2E"/>
  <anchor x="-70" y="536" name="_top"/>
  <outline>
    <contour>
      <point x="-70" y="569" type="curve" smooth="yes"/>
      <point x="-45" y="569"/>
      <point x="-32" y="587"/>
      <point x="-29" y="616" type="curve"/>
      <point x="112" y="616" type="line"/>
      <point x="112" y="675" type="line"/>
      <point x="-69" y="675" type="line" smooth="yes"/>
      <point x="-100" y="675"/>
      <point x="-112" y="659"/>
      <point x="-112" y="622" type="curve" smooth="yes"/>
      <point x="-112" y="587"/>
      <point x="-100" y="569"/>
    </contour>
  </outline>
</glyph>
<glyph name="uniFE2F" format="2">
  <unicode hex="FE2F"/>
  <anchor x="70" y="536" name="_top"/>
  <outline>
    <contour>
      <point x="-112" y="616" type="line"/>
      <point x="69" y="616" type="line" smooth="yes"/>
      <point x="99" y="616"/>
      <point x="112" y="633"/>
      <point x="112" y="670" type="curve" smooth="yes"/>
      <point x="112" y="705"/>
      <point x="99" y="723"/>
      <point x="70" y="723" type="curve" smooth="yes"/>
      <point x="44" y="723"/>
      <point x="32" y="705"/>
      <point x="29" y="675" type="curve"/>
      <point x="-112" y="675" type="line"/>
    </contour>
  </outline>
</glyph>
